<?xml version="1.0" encoding="UTF-8"?>
<svg xmlns="http://www.w3.org/2000/svg" width="800" height="800" version="1.1" viewBox="0 0 800 800">
  <!-- Generator: Adobe Illustrator 28.7.1, SVG Export Plug-In . SVG Version: 1.2.0 Build 142)  -->
  <g>
    <g id="Camada_1">
      <g id="Camada_1-2" data-name="Camada_1">
        <path id="mongo" d="M418.1,597.3c-9.2-1.1-18.5-42.6-18.5-58.2,0,0,0-200.6,6.7-200.6s11.9,258.8,11.9,258.8ZM800,400c0,220.9-179.1,400-400,400S0,620.9,0,400,179.1,0,400,0s400,179.1,400,400ZM533.5,394.5c0-18-1.7-35.9-4.7-53.6h0c-30.6-135-102.9-179.4-110.6-196.3-8.5-12-17.2-33.3-17.2-33.3-.1-.4-.4-1-.6-1.6-.8,12-1.3,16.6-12.6,28.7-17.6,13.7-107.4,89.1-114.6,242.4-6.8,143.1,103.4,228.3,118.3,239l1.7,1.2h0c0,.6,4.7,33.9,8,69.2h11.6c2.8-24.9,6.9-49.7,12.3-74.3l1-.6c6.7-4.7,13.1-9.9,19-15.6l.7-.6c31.7-29.3,88.6-96.9,88-204.8h-.2Z" fill="#fff"/>
      </g>
    </g>
  </g>
</svg>