<?xml version="1.0" encoding="UTF-8"?>
<svg xmlns="http://www.w3.org/2000/svg" width="59.1" height="64" version="1.1" viewBox="0 0 59.1 64">
  <!-- Generator: Adobe Illustrator 28.7.1, SVG Export Plug-In . SVG Version: 1.2.0 Build 142)  -->
  <g>
    <g id="Camada_1">
      <path d="M29.5,0c-.9,0-1.8.2-2.6.7L2.6,14.7c-1.6.9-2.6,2.6-2.6,4.5v25.5c0,1.8,1,3.5,2.6,4.5l6.4,3.7c3.1,1.5,4.2,1.5,5.6,1.5,4.6,0,7.2-2.8,7.2-7.6v-26.4c0-.4-.3-.7-.7-.7h-3.1c-.4,0-.7.3-.7.7v26.3c0,2.2-2.2,4.3-5.9,2.5l-6.7-3.9c-.2-.1-.4-.4-.4-.7v-25.5c0-.3.1-.5.4-.7L29.1,4.5c.2-.1.5-.1.8,0l24.4,14.1c.2.1.4.4.4.7v25.5c0,.3-.1.5-.4.7l-24.4,14.1c-.2.1-.5.1-.8,0l-6.3-3.7c-.2-.1-.4-.1-.6,0-1.7,1-2.1,1.1-3.7,1.7-.4.1-1,.4.2,1.1l8.1,4.8c.8.4,1.7.7,2.6.7s1.8-.2,2.6-.7l24.4-14.1c1.6-.9,2.6-2.6,2.6-4.5v-25.5c0-1.8-1-3.5-2.6-4.5L32.1.7c-.8-.4-1.7-.7-2.6-.7ZM36.1,19.7c-7,0-11.1,3-11.1,7.9s4.1,6.8,10.8,7.5c8,.8,8.6,2,8.6,3.5,0,2.7-2.2,3.9-7.3,3.9s-7.9-1.6-8.4-4.8c0-.3-.3-.6-.7-.6h-3.2c-.4,0-.7.3-.7.7,0,4.1,2.2,9,12.9,9s12.2-3,12.2-8.4-3.6-6.7-11.1-7.7c-7.6-1-8.4-1.5-8.4-3.3s.7-3.4,6.3-3.4,6.9,1.1,7.6,4.5c0,.3.3.6.7.6h3.2c.2,0,.4,0,.5-.2.1-.1.2-.3.2-.5-.5-5.8-4.4-8.5-12.2-8.5Z" fill="#fff"/>
    </g>
  </g>
</svg>