<?xml version="1.0" encoding="UTF-8"?>
<svg xmlns="http://www.w3.org/2000/svg" width="68.4" height="61.5" version="1.1" viewBox="0 0 68.4 61.5">
  <!-- Generator: Adobe Illustrator 28.7.1, SVG Export Plug-In . SVG Version: 1.2.0 Build 142)  -->
  <g>
    <g id="Camada_1">
      <g id="Camada_1-2" data-name="Camada_1">
        <g id="Camada_1-2">
          <path d="M34.2,24.6c-3.4,0-6.1,2.7-6.1,6.1s2.7,6.1,6.1,6.1,6.1-2.7,6.1-6.1-2.7-6.1-6.1-6.1ZM17.2,42.8l-1.4-.3C5.8,40,0,35.6,0,30.7s5.8-9.3,15.8-11.8l1.4-.3.4,1.4c1.1,3.5,2.3,6.9,3.9,10.2l.3.6-.3.6c-1.6,3.3-2.8,6.7-3.9,10.2l-.4,1.4h0v-.2ZM15.2,21.9c-7.6,2.1-12.3,5.4-12.3,8.6s4.6,6.5,12.3,8.6c.9-2.9,2.1-5.9,3.4-8.6-1.4-2.8-2.4-5.7-3.4-8.6h0ZM51.3,42.8l-.4-1.4c-1.1-3.5-2.3-6.9-3.9-10.2l-.3-.6.3-.6c1.6-3.3,2.8-6.7,3.9-10.2l.4-1.4,1.4.3c10,2.5,15.8,6.8,15.8,11.8s-5.8,9.3-15.8,11.8l-1.4.3h0v.2ZM49.9,30.7c1.4,2.9,2.5,5.9,3.4,8.6,7.6-2.1,12.3-5.5,12.3-8.6s-4.6-6.5-12.3-8.6c-.9,2.9-2.1,5.9-3.4,8.6h0ZM15.2,21.9l-.4-1.4C11.9,10.7,12.7,3.5,17.1,1c4.2-2.4,11.1.4,18.1,7.8l.9.9-.9.9c-2.5,2.6-4.8,5.5-6.9,8.4l-.4.5h-.6c-3.7.3-7.3.9-10.8,1.8l-1.4.3h0l.2.2ZM20.5,3.1c-.7,0-1.5.2-2,.5-2.8,1.7-3.4,7.3-1.4,15,3.1-.6,6.1-1.2,9.3-1.5,1.8-2.5,3.8-4.9,5.9-7.3-4.4-4.3-8.6-6.8-11.7-6.8h-.1ZM47.9,61.1h0c-4.1,0-9.3-3.1-14.7-8.6l-.9-.9.9-.9c2.5-2.6,4.8-5.5,6.9-8.4l.4-.5h.6c3.7-.3,7.3-.9,10.8-1.8l1.4-.3.4,1.4c2.8,9.9,2,17.1-2.3,19.6-1.1.6-2.2.9-3.5.8h0v-.2ZM36.2,51.5c4.4,4.3,8.6,6.8,11.7,6.8h0c.7,0,1.5-.2,2-.5,2.8-1.7,3.4-7.3,1.4-15-3.1.6-6.1,1.2-9.3,1.5-1.8,2.5-3.8,4.9-5.9,7.3h.1ZM53.3,21.9l-1.4-.3c-3.6-.8-7.2-1.5-10.8-1.7h-.6l-.4-.6c-2.1-3.1-4.4-5.8-6.9-8.4l-.9-.9.9-.9C40.3,1.5,47.1-1.3,51.4,1.1c4.3,2.5,5.2,9.6,2.3,19.6l-.4,1.4h0ZM42.1,17.1c3.3.3,6.3.7,9.3,1.5,2-7.7,1.5-13.4-1.4-15s-8.1.8-13.7,6.3c2.1,2.3,4.1,4.7,5.9,7.3h-.1ZM20.5,61.1c-1.2,0-2.4-.3-3.5-.8-4.3-2.5-5.2-9.6-2.3-19.6l.4-1.4,1.4.3c3.3.8,6.9,1.4,10.8,1.7h.6l.4.6c2.1,3.1,4.4,5.8,6.9,8.4l.9.9-.9.9c-5.4,5.6-10.6,8.6-14.7,8.6h0v.2ZM17.2,42.8c-2,7.7-1.5,13.4,1.4,15,2.8,1.6,8.1-.8,13.7-6.3-2.1-2.3-4.1-4.7-5.9-7.3-3.1-.3-6.2-.7-9.3-1.5h.1ZM34.2,44.6c-2.3,0-4.7,0-7.2-.3h-.6l-.4-.6c-1.4-2-2.6-4-3.9-6s-2.3-4.2-3.4-6.3l-.3-.6.3-.6c1.1-2.2,2.1-4.3,3.4-6.3,1.2-2,2.5-4.1,3.9-6l.4-.5h.6c4.7-.4,9.6-.4,14.3,0h.6l.4.6c2.7,3.9,5.2,8.1,7.2,12.4l.3.6-.3.6c-2,4.3-4.4,8.5-7.2,12.4l-.4.5h-.6c-2.4.2-4.8.3-7.2.3h0v-.2ZM28,41.5c4.2.3,8.3.3,12.5,0,2.3-3.5,4.4-7.1,6.2-10.8-1.8-3.8-3.9-7.4-6.2-10.8-4.2-.3-8.3-.3-12.5,0-2.3,3.5-4.4,7.1-6.2,10.8,1.8,3.8,3.9,7.4,6.2,10.8h0Z" fill="#fff"/>
        </g>
      </g>
    </g>
  </g>
</svg>